<?xml version="1.0" standalone="no"?>
<!DOCTYPE svg PUBLIC "-//W3C//DTD SVG 20010904//EN"
 "http://www.w3.org/TR/2001/REC-SVG-20010904/DTD/svg10.dtd">
<svg version="1.0" xmlns="http://www.w3.org/2000/svg"
 width="610pt" height="610pt" viewBox="0 0 610 610"
 preserveAspectRatio="xMidYMid meet">

<g transform="translate(0.000000,610.000000) scale(0.100000,-0.100000)"
fill="#000000" stroke="none">
<path d="M0 3050 l0 -3050 3050 0 3050 0 0 3050 0 3050 -3050 0 -3050 0 0
-3050z m4937 1576 c72 -33 134 -95 166 -164 31 -66 31 -198 0 -264 -32 -69
-94 -131 -166 -164 l-62 -29 -1825 0 c-2067 0 -1880 -8 -1981 83 -145 131
-148 349 -5 480 54 50 99 71 171 82 28 4 858 7 1845 6 l1795 -1 62 -29z m10
-1278 c66 -35 116 -85 150 -151 24 -45 28 -63 28 -142 0 -79 -4 -97 -28 -142
-34 -66 -84 -116 -150 -151 l-52 -27 -1850 0 -1850 0 -57 28 c-206 101 -241
392 -66 540 26 22 71 48 100 58 51 18 134 18 1888 16 l1835 -2 52 -27z m51
-1279 c67 -33 119 -86 153 -158 33 -66 33 -196 0 -262 -34 -72 -86 -125 -153
-158 l-61 -31 -1846 0 c-1816 0 -1847 1 -1890 20 -120 55 -192 167 -192 300 0
108 45 199 131 262 82 61 -45 57 1956 58 l1841 0 61 -31z"/>
</g>
</svg>
